<?xml version="1.0" encoding="iso-8859-1"?>
<!-- Generator: Adobe Illustrator 19.0.0, SVG Export Plug-In . SVG Version: 6.00 Build 0)  -->
<svg version="1.1" id="Capa_1" xmlns="http://www.w3.org/2000/svg" xmlns:xlink="http://www.w3.org/1999/xlink" x="0px" y="0px"
	 viewBox="0 0 491.1 491.1" style="enable-background:new 0 0 491.1 491.1;" xml:space="preserve">
<g>
	<path d="M470.3,118.8h-60.4V20c0-11-9-20-20-20h-182c-11,0-20,9-20,20v98.8h-167C9.4,118.8,0,128.2,0,139.7v330.5
		c0,11.5,9.4,20.9,20.9,20.9h448.3c11.5,0,20.9-9.4,21.9-20.9V139.7C491.1,128.2,481.7,118.8,470.3,118.8z M369.8,40v175.4l-21-21
		c-8.5-8.5-19.4-8.8-28.3,0l-21.7,21.7l-21.7-21.7c-7.8-7.8-20.5-7.8-28.3,0l-21,21V40H369.8z M354.9,257l-56,81.3l-56-81.3
		l20.1-20.1l21.7,21.7c7.3,7.3,19.6,8.7,28.3,0l21.7-21.7L354.9,257z M449.4,450.3H40.7V160.5h147.1v81c0,4.1,1.2,8,3.5,11.3
		l91,132.1c11.9,11.9,20.1,12.9,32.9,0l91-132.1c2.5-3.6,3.6-7.7,3.5-11.7c0-0.1,0-0.2,0-0.3v-80.3h39.6v289.8H449.4z"/>
</g>
<g>
</g>
<g>
</g>
<g>
</g>
<g>
</g>
<g>
</g>
<g>
</g>
<g>
</g>
<g>
</g>
<g>
</g>
<g>
</g>
<g>
</g>
<g>
</g>
<g>
</g>
<g>
</g>
<g>
</g>
</svg>
